<svg xmlns="http://www.w3.org/2000/svg" width="1277.123291015625" height="1342.074951171875" viewBox="-524.3165893554688 -559.0052490234375 1277.123291015625 1342.074951171875"><title>Neo4j Graph Visualization</title><desc>Created using Neo4j (http://www.neo4j.com/)</desc><g class="layer relationships"><g class="relationship" transform="translate(-365.96287685443264 89.05886717005933) rotate(317.6679489605516)"><path class="outline" fill="#A5ABB6" stroke="none" d="M 25 0.5 L 35.16329663962688 0.5 L 35.16329663962688 -0.5 L 25 -0.5 Z M 97.17892163962688 0.5 L 107.34221827925376 0.5 L 107.34221827925376 3.5 L 114.34221827925376 0 L 107.34221827925376 -3.5 L 107.34221827925376 -0.5 L 97.17892163962688 -0.5 Z"/><text text-anchor="middle" pointer-events="none" font-size="8px" fill="#000000" x="66.17110913962688" y="3" font-family="sans-serif">IS_CLIENT_OF</text></g><g class="relationship" transform="translate(-240.52376605366743 -134.3644360047247) rotate(459.8198576528714)"><path class="outline" fill="#A5ABB6" stroke="none" d="M 25 0.5 L 25.766481723192015 0.5 L 25.766481723192015 -0.5 L 25 -0.5 Z M 98.74695047319202 0.5 L 99.51343219638403 0.5 L 99.51343219638403 3.5 L 106.51343219638403 0 L 99.51343219638403 -3.5 L 99.51343219638403 -0.5 L 98.74695047319202 -0.5 Z"/><text text-anchor="middle" pointer-events="none" font-size="8px" fill="#000000" x="62.256716098192015" y="3" transform="rotate(180 62.256716098192015 0)" font-family="sans-serif">IS_COUNTRY_OF</text></g><g class="relationship" transform="translate(301.90403180153726 446.18460476258196) rotate(186.0282850650558)"><path class="outline" fill="#A5ABB6" stroke="none" d="M 25 0.5 L 25.447143666438052 0.5 L 25.447143666438052 -0.5 L 25 -0.5 Z M 85.67370616643805 0.5 L 86.1208498328761 0.5 L 86.1208498328761 3.5 L 93.1208498328761 0 L 86.1208498328761 -3.5 L 86.1208498328761 -0.5 L 85.67370616643805 -0.5 Z"/><text text-anchor="middle" pointer-events="none" font-size="8px" fill="#000000" x="55.56042491643805" y="3" transform="rotate(180 55.56042491643805 0)" font-family="sans-serif">IS_COUNTR…</text></g><g class="relationship" transform="translate(187.7943704050704 565.7157897630783) rotate(268.54203947269593)"><path class="outline" fill="#A5ABB6" stroke="none" d="M 25 0.5 L 31.4816344457938 0.5 L 31.4816344457938 -0.5 L 25 -0.5 Z M 93.4972594457938 0.5 L 99.9788938915876 0.5 L 99.9788938915876 3.5 L 106.9788938915876 0 L 99.9788938915876 -3.5 L 99.9788938915876 -0.5 L 93.4972594457938 -0.5 Z"/><text text-anchor="middle" pointer-events="none" font-size="8px" fill="#000000" x="62.4894469457938" y="3" transform="rotate(180 62.4894469457938 0)" font-family="sans-serif">IS_CLIENT_OF</text></g><g class="relationship" transform="translate(424.79878117535327 647.0546521644964) rotate(233.93203858202884)"><path class="outline" fill="#A5ABB6" stroke="none" d="M 25 0.5 L 26.19449908079183 0.5 L 26.19449908079183 -0.5 L 25 -0.5 Z M 80.65153033079183 0.5 L 81.84602941158366 0.5 L 81.84602941158366 3.5 L 88.84602941158366 0 L 81.84602941158366 -3.5 L 81.84602941158366 -0.5 L 80.65153033079183 -0.5 Z"/><text text-anchor="middle" pointer-events="none" font-size="8px" fill="#000000" x="53.42301470579183" y="3" transform="rotate(180 53.42301470579183 0)" font-family="sans-serif">IS_CLIENT…</text></g><g class="relationship" transform="translate(301.90403180153726 446.18460476258196) rotate(422.8294782757913)"><path class="outline" fill="#A5ABB6" stroke="none" d="M 25 0.5 L 27.560179341831983 0.5 L 27.560179341831983 -0.5 L 25 -0.5 Z M 87.78674184183198 0.5 L 90.34692118366397 0.5 L 90.34692118366397 3.5 L 97.34692118366397 0 L 90.34692118366397 -3.5 L 90.34692118366397 -0.5 L 87.78674184183198 -0.5 Z"/><text text-anchor="middle" pointer-events="none" font-size="8px" fill="#000000" x="57.67346059183198" y="3" font-family="sans-serif">IS_COUNTR…</text></g><g class="relationship" transform="translate(-240.52376605366743 -134.3644360047247) rotate(375.55912653108584)"><path class="outline" fill="#A5ABB6" stroke="none" d="M 25 0.5 L 25.207838801237244 0.5 L 25.207838801237244 -0.5 L 25 -0.5 Z M 95.07893255123724 0.5 L 95.28677135247449 0.5 L 95.28677135247449 3.5 L 102.28677135247449 0 L 95.28677135247449 -3.5 L 95.28677135247449 -0.5 L 95.07893255123724 -0.5 Z"/><text text-anchor="middle" pointer-events="none" font-size="8px" fill="#000000" x="60.143385676237244" y="3" font-family="sans-serif">IS_COUNTRY_…</text></g><g class="relationship" transform="translate(-70.71337364120157 30.289363144024797) rotate(250.12185211202564)"><path class="outline" fill="#A5ABB6" stroke="none" d="M 25 0.5 L 34.88226070349158 0.5 L 34.88226070349158 -0.5 L 25 -0.5 Z M 96.89788570349158 0.5 L 106.78014640698316 0.5 L 106.78014640698316 3.5 L 113.78014640698316 0 L 106.78014640698316 -3.5 L 106.78014640698316 -0.5 L 96.89788570349158 -0.5 Z"/><text text-anchor="middle" pointer-events="none" font-size="8px" fill="#000000" x="65.89007320349158" y="3" transform="rotate(180 65.89007320349158 0)" font-family="sans-serif">IS_CLIENT_OF</text></g><g class="relationship" transform="translate(514.0297167154794 253.00189001738119) rotate(253.9685573272301)"><path class="outline" fill="#A5ABB6" stroke="none" d="M 25 0.5 L 25.550345139693647 0.5 L 25.550345139693647 -0.5 L 25 -0.5 Z M 87.56597013969365 0.5 L 88.1163152793873 0.5 L 88.1163152793873 3.5 L 95.1163152793873 0 L 88.1163152793873 -3.5 L 88.1163152793873 -0.5 L 87.56597013969365 -0.5 Z"/><text text-anchor="middle" pointer-events="none" font-size="8px" fill="#000000" x="56.55815763969365" y="3" transform="rotate(180 56.55815763969365 0)" font-family="sans-serif">IS_CLIENT_OF</text></g><g class="relationship" transform="translate(481.52061990234114 13.774500563953335) rotate(450.30679322515664)"><path class="outline" fill="#A5ABB6" stroke="none" d="M 25 0.5 L 25.68113133326699 0.5 L 25.68113133326699 -0.5 L 25 -0.5 Z M 91.10300633326699 0.5 L 91.78413766653398 0.5 L 91.78413766653398 3.5 L 98.78413766653398 0 L 91.78413766653398 -3.5 L 91.78413766653398 -0.5 L 91.10300633326699 -0.5 Z"/><text text-anchor="middle" pointer-events="none" font-size="8px" fill="#000000" x="58.39206883326699" y="3" transform="rotate(180 58.39206883326699 0)" font-family="sans-serif">IS_COUNTRY…</text></g><g class="relationship" transform="translate(671.0271720242436 184.31773941735324) rotate(224.14790267339265)"><path class="outline" fill="#A5ABB6" stroke="none" d="M 25 0.5 L 28.15989918053959 0.5 L 28.15989918053959 -0.5 L 25 -0.5 Z M 90.17552418053958 0.5 L 93.33542336107918 0.5 L 93.33542336107918 3.5 L 100.33542336107918 0 L 93.33542336107918 -3.5 L 93.33542336107918 -0.5 L 90.17552418053958 -0.5 Z"/><text text-anchor="middle" pointer-events="none" font-size="8px" fill="#000000" x="59.16771168053959" y="3" transform="rotate(180 59.16771168053959 0)" font-family="sans-serif">IS_CLIENT_OF</text></g><g class="relationship" transform="translate(481.52061990234114 13.774500563953335) rotate(399.89650275128)"><path class="outline" fill="#A5ABB6" stroke="none" d="M 25 0.5 L 26.457756490964215 0.5 L 26.457756490964215 -0.5 L 25 -0.5 Z M 96.32885024096421 0.5 L 97.78660673192843 0.5 L 97.78660673192843 3.5 L 104.78660673192843 0 L 97.78660673192843 -3.5 L 97.78660673192843 -0.5 L 96.32885024096421 -0.5 Z"/><text text-anchor="middle" pointer-events="none" font-size="8px" fill="#000000" x="61.393303365964215" y="3" font-family="sans-serif">IS_COUNTRY_…</text></g><g class="relationship" transform="translate(301.90403180153726 446.18460476258196) rotate(357.12797754912424)"><path class="outline" fill="#A5ABB6" stroke="none" d="M 25 0.5 L 25.390953566480654 0.5 L 25.390953566480654 -0.5 L 25 -0.5 Z M 85.61751606648065 0.5 L 86.00846963296131 0.5 L 86.00846963296131 3.5 L 93.00846963296131 0 L 86.00846963296131 -3.5 L 86.00846963296131 -0.5 L 85.61751606648065 -0.5 Z"/><text text-anchor="middle" pointer-events="none" font-size="8px" fill="#000000" x="55.504234816480654" y="3" font-family="sans-serif">IS_COUNTR…</text></g><g class="relationship" transform="translate(534.8897830245451 463.39558906496507) rotate(191.35716984086093)"><path class="outline" fill="#A5ABB6" stroke="none" d="M 25 0.5 L 25.759296682807197 0.5 L 25.759296682807197 -0.5 L 25 -0.5 Z M 84.66554668280719 0.5 L 85.4248433656144 0.5 L 85.4248433656144 3.5 L 92.4248433656144 0 L 85.4248433656144 -3.5 L 85.4248433656144 -0.5 L 84.66554668280719 -0.5 Z"/><text text-anchor="middle" pointer-events="none" font-size="8px" fill="#000000" x="55.2124216828072" y="3" transform="rotate(180 55.2124216828072 0)" font-family="sans-serif">IS_CLIENT_…</text></g><g class="relationship" transform="translate(585.7713259075215 -379.9064608717754) rotate(204.18451684434245)"><path class="outline" fill="#A5ABB6" stroke="none" d="M 25 0.5 L 25.297642753244986 0.5 L 25.297642753244986 -0.5 L 25 -0.5 Z M 74.86795525324499 0.5 L 75.16559800648997 0.5 L 75.16559800648997 3.5 L 82.16559800648997 0 L 75.16559800648997 -3.5 L 75.16559800648997 -0.5 L 74.86795525324499 -0.5 Z"/><text text-anchor="middle" pointer-events="none" font-size="8px" fill="#000000" x="50.082799003244986" y="3" transform="rotate(180 50.082799003244986 0)" font-family="sans-serif">IS_CLIEN…</text></g><g class="relationship" transform="translate(387.8521937638301 -456.84498497917457) rotate(378.2539661102931)"><path class="outline" fill="#A5ABB6" stroke="none" d="M 25 0.5 L 27.340782666002177 0.5 L 27.340782666002177 -0.5 L 25 -0.5 Z M 71.12593891600218 0.5 L 73.46672158200435 0.5 L 73.46672158200435 3.5 L 80.46672158200435 0 L 73.46672158200435 -3.5 L 73.46672158200435 -0.5 L 71.12593891600218 -0.5 Z"/><text text-anchor="middle" pointer-events="none" font-size="8px" fill="#000000" x="49.23336079100218" y="3" font-family="sans-serif">IS_COU…</text></g><g class="relationship" transform="translate(481.52061990234114 13.774500563953335) rotate(349.5386682788196)"><path class="outline" fill="#A5ABB6" stroke="none" d="M 25 0.5 L 26.67562342266102 0.5 L 26.67562342266102 -0.5 L 25 -0.5 Z M 92.09749842266102 0.5 L 93.77312184532204 0.5 L 93.77312184532204 3.5 L 100.77312184532204 0 L 93.77312184532204 -3.5 L 93.77312184532204 -0.5 L 92.09749842266102 -0.5 Z"/><text text-anchor="middle" pointer-events="none" font-size="8px" fill="#000000" x="59.38656092266102" y="3" font-family="sans-serif">IS_COUNTRY…</text></g><g class="relationship" transform="translate(723.8065859741369 -10.672334616732645) rotate(539.2222920446867)"><path class="outline" fill="#A5ABB6" stroke="none" d="M 25 0.5 L 26.354081479105908 0.5 L 26.354081479105908 -0.5 L 25 -0.5 Z M 85.2603314791059 0.5 L 86.61441295821182 0.5 L 86.61441295821182 3.5 L 93.61441295821182 0 L 86.61441295821182 -3.5 L 86.61441295821182 -0.5 L 85.2603314791059 -0.5 Z"/><text text-anchor="middle" pointer-events="none" font-size="8px" fill="#000000" x="55.80720647910591" y="3" transform="rotate(180 55.80720647910591 0)" font-family="sans-serif">IS_CLIENT_…</text></g><g class="relationship" transform="translate(-240.52376605366743 -134.3644360047247) rotate(407.63034627203405)"><path class="outline" fill="#A5ABB6" stroke="none" d="M 25 0.5 L 25.502155916988528 0.5 L 25.502155916988528 -0.5 L 25 -0.5 Z M 95.37324966698853 0.5 L 95.87540558397706 0.5 L 95.87540558397706 3.5 L 102.87540558397706 0 L 95.87540558397706 -3.5 L 95.87540558397706 -0.5 L 95.37324966698853 -0.5 Z"/><text text-anchor="middle" pointer-events="none" font-size="8px" fill="#000000" x="60.43770279198853" y="3" font-family="sans-serif">IS_COUNTRY_…</text></g><g class="relationship" transform="translate(-20.613214239548185 -25.08349261618469) rotate(186.31720653584716)"><path class="outline" fill="#A5ABB6" stroke="none" d="M 25 0.5 L 32.767630373688775 0.5 L 32.767630373688775 -0.5 L 25 -0.5 Z M 94.78325537368877 0.5 L 102.55088574737755 0.5 L 102.55088574737755 3.5 L 109.55088574737755 0 L 102.55088574737755 -3.5 L 102.55088574737755 -0.5 L 94.78325537368877 -0.5 Z"/><text text-anchor="middle" pointer-events="none" font-size="8px" fill="#000000" x="63.775442873688775" y="3" transform="rotate(180 63.775442873688775 0)" font-family="sans-serif">IS_CLIENT_OF</text></g><g class="relationship" transform="translate(-240.52376605366743 -134.3644360047247) rotate(324.93626803802374)"><path class="outline" fill="#A5ABB6" stroke="none" d="M 25 0.5 L 25.8814159029166 0.5 L 25.8814159029166 -0.5 L 25 -0.5 Z M 98.8618846529166 0.5 L 99.7433005558332 0.5 L 99.7433005558332 3.5 L 106.7433005558332 0 L 99.7433005558332 -3.5 L 99.7433005558332 -0.5 L 98.8618846529166 -0.5 Z"/><text text-anchor="middle" pointer-events="none" font-size="8px" fill="#000000" x="62.3716502779166" y="3" font-family="sans-serif">IS_COUNTRY_OF</text></g><g class="relationship" transform="translate(-22.886968185109204 -270.45105537002314) rotate(511.1851783314032)"><path class="outline" fill="#A5ABB6" stroke="none" d="M 25 0.5 L 28.152183061237025 0.5 L 28.152183061237025 -0.5 L 25 -0.5 Z M 90.16780806123703 0.5 L 93.31999112247405 0.5 L 93.31999112247405 3.5 L 100.31999112247405 0 L 93.31999112247405 -3.5 L 93.31999112247405 -0.5 L 90.16780806123703 -0.5 Z"/><text text-anchor="middle" pointer-events="none" font-size="8px" fill="#000000" x="59.159995561237025" y="3" transform="rotate(180 59.159995561237025 0)" font-family="sans-serif">IS_CLIENT_OF</text></g><g class="relationship" transform="translate(481.52061990234114 13.774500563953335) rotate(296.0951396917839)"><path class="outline" fill="#A5ABB6" stroke="none" d="M 25 0.5 L 25.39279817002354 0.5 L 25.39279817002354 -0.5 L 25 -0.5 Z M 90.81467317002354 0.5 L 91.20747134004708 0.5 L 91.20747134004708 3.5 L 98.20747134004708 0 L 91.20747134004708 -3.5 L 91.20747134004708 -0.5 L 90.81467317002354 -0.5 Z"/><text text-anchor="middle" pointer-events="none" font-size="8px" fill="#000000" x="58.10373567002354" y="3" font-family="sans-serif">IS_COUNTRY…</text></g><g class="relationship" transform="translate(559.4187858005872 -210.42287682845026) rotate(461.79135586373303)"><path class="outline" fill="#A5ABB6" stroke="none" d="M 25 0.5 L 25.045280516875614 0.5 L 25.045280516875614 -0.5 L 25 -0.5 Z M 83.95153051687561 0.5 L 83.99681103375123 0.5 L 83.99681103375123 3.5 L 90.99681103375123 0 L 83.99681103375123 -3.5 L 83.99681103375123 -0.5 L 83.95153051687561 -0.5 Z"/><text text-anchor="middle" pointer-events="none" font-size="8px" fill="#000000" x="54.498405516875614" y="3" transform="rotate(180 54.498405516875614 0)" font-family="sans-serif">IS_CLIENT_…</text></g><g class="relationship" transform="translate(481.52061990234114 13.774500563953335) rotate(242.9964274339198)"><path class="outline" fill="#A5ABB6" stroke="none" d="M 25 0.5 L 26.04210536579413 0.5 L 26.04210536579413 -0.5 L 25 -0.5 Z M 95.91319911579413 0.5 L 96.95530448158826 0.5 L 96.95530448158826 3.5 L 103.95530448158826 0 L 96.95530448158826 -3.5 L 96.95530448158826 -0.5 L 95.91319911579413 -0.5 Z"/><text text-anchor="middle" pointer-events="none" font-size="8px" fill="#000000" x="60.97765224079413" y="3" transform="rotate(180 60.97765224079413 0)" font-family="sans-serif">IS_COUNTRY_…</text></g><g class="relationship" transform="translate(349.83868982264386 -202.8544821141766) rotate(414.2896081438677)"><path class="outline" fill="#A5ABB6" stroke="none" d="M 25 0.5 L 28.13714608918044 0.5 L 28.13714608918044 -0.5 L 25 -0.5 Z M 90.15277108918045 0.5 L 93.28991717836088 0.5 L 93.28991717836088 3.5 L 100.28991717836088 0 L 93.28991717836088 -3.5 L 93.28991717836088 -0.5 L 90.15277108918045 -0.5 Z"/><text text-anchor="middle" pointer-events="none" font-size="8px" fill="#000000" x="59.14495858918044" y="3" font-family="sans-serif">IS_CLIENT_OF</text></g><g class="relationship" transform="translate(-240.52376605366743 -134.3644360047247) rotate(279.555475388785)"><path class="outline" fill="#A5ABB6" stroke="none" d="M 25 0.5 L 26.16892811601791 0.5 L 26.16892811601791 -0.5 L 25 -0.5 Z M 96.04002186601791 0.5 L 97.20894998203582 0.5 L 97.20894998203582 3.5 L 104.20894998203582 0 L 97.20894998203582 -3.5 L 97.20894998203582 -0.5 L 96.04002186601791 -0.5 Z"/><text text-anchor="middle" pointer-events="none" font-size="8px" fill="#000000" x="61.10447499101791" y="3" font-family="sans-serif">IS_COUNTRY_…</text></g><g class="relationship" transform="translate(-186.3494775650638 -381.7413508056909) rotate(465.25899927356517)"><path class="outline" fill="#A5ABB6" stroke="none" d="M 25 0.5 L 27.664352943279866 0.5 L 27.664352943279866 -0.5 L 25 -0.5 Z M 89.67997794327987 0.5 L 92.34433088655973 0.5 L 92.34433088655973 3.5 L 99.34433088655973 0 L 92.34433088655973 -3.5 L 92.34433088655973 -0.5 L 89.67997794327987 -0.5 Z"/><text text-anchor="middle" pointer-events="none" font-size="8px" fill="#000000" x="58.672165443279866" y="3" transform="rotate(180 58.672165443279866 0)" font-family="sans-serif">IS_CLIENT_OF</text></g><g class="relationship" transform="translate(301.90403180153726 446.18460476258196) rotate(239.13743178976256)"><path class="outline" fill="#A5ABB6" stroke="none" d="M 25 0.5 L 25.68988004700946 0.5 L 25.68988004700946 -0.5 L 25 -0.5 Z M 91.11175504700947 0.5 L 91.80163509401892 0.5 L 91.80163509401892 3.5 L 98.80163509401892 0 L 91.80163509401892 -3.5 L 91.80163509401892 -0.5 L 91.11175504700947 -0.5 Z"/><text text-anchor="middle" pointer-events="none" font-size="8px" fill="#000000" x="58.40081754700946" y="3" transform="rotate(180 58.40081754700946 0)" font-family="sans-serif">IS_COUNTRY…</text></g><g class="relationship" transform="translate(128.67509383624147 285.8678743393462) rotate(386.2234967182381)"><path class="outline" fill="#A5ABB6" stroke="none" d="M 25 0.5 L 26.646958446117672 0.5 L 26.646958446117672 -0.5 L 25 -0.5 Z M 88.66258344611768 0.5 L 90.30954189223534 0.5 L 90.30954189223534 3.5 L 97.30954189223534 0 L 90.30954189223534 -3.5 L 90.30954189223534 -0.5 L 88.66258344611768 -0.5 Z"/><text text-anchor="middle" pointer-events="none" font-size="8px" fill="#000000" x="57.65477094611767" y="3" font-family="sans-serif">IS_CLIENT_OF</text></g><g class="relationship" transform="translate(-0.705994801184682 -530.0052245433708) rotate(374.19736400864014)"><path class="outline" fill="#A5ABB6" stroke="none" d="M 25 0.5 L 26.606047574424636 0.5 L 26.606047574424636 -0.5 L 25 -0.5 Z M 70.39901632442464 0.5 L 72.00506389884927 0.5 L 72.00506389884927 3.5 L 79.00506389884927 0 L 72.00506389884927 -3.5 L 72.00506389884927 -0.5 L 70.39901632442464 -0.5 Z"/><text text-anchor="middle" pointer-events="none" font-size="8px" fill="#000000" x="48.502531949424636" y="3" font-family="sans-serif">IS_CLIE…</text></g><g class="relationship" transform="translate(198.46758486191058 -475.24598940725605) rotate(196.56398018868487)"><path class="outline" fill="#A5ABB6" stroke="none" d="M 25 0.5 L 25.908922417400063 0.5 L 25.908922417400063 -0.5 L 25 -0.5 Z M 69.69407866740006 0.5 L 70.60300108480013 0.5 L 70.60300108480013 3.5 L 77.60300108480013 0 L 70.60300108480013 -3.5 L 70.60300108480013 -0.5 L 69.69407866740006 -0.5 Z"/><text text-anchor="middle" pointer-events="none" font-size="8px" fill="#000000" x="47.80150054240006" y="3" transform="rotate(180 47.80150054240006 0)" font-family="sans-serif">IS_COU…</text></g><g class="relationship" transform="translate(-385.411658445404 -330.70345015515625) rotate(417.4481596746758)"><path class="outline" fill="#A5ABB6" stroke="none" d="M 25 0.5 L 25.26506811972667 0.5 L 25.26506811972667 -0.5 L 25 -0.5 Z M 87.28069311972666 0.5 L 87.54576123945334 0.5 L 87.54576123945334 3.5 L 94.54576123945334 0 L 87.54576123945334 -3.5 L 87.54576123945334 -0.5 L 87.28069311972666 -0.5 Z"/><text text-anchor="middle" pointer-events="none" font-size="8px" fill="#000000" x="56.27288061972667" y="3" font-family="sans-serif">IS_CLIENT_OF</text></g><g class="relationship" transform="translate(-240.52376605366743 -134.3644360047247) rotate(229.87033329907268)"><path class="outline" fill="#A5ABB6" stroke="none" d="M 25 0.5 L 26.28894879874656 0.5 L 26.28894879874656 -0.5 L 25 -0.5 Z M 91.71082379874656 0.5 L 92.99977259749312 0.5 L 92.99977259749312 3.5 L 99.99977259749312 0 L 92.99977259749312 -3.5 L 92.99977259749312 -0.5 L 91.71082379874656 -0.5 Z"/><text text-anchor="middle" pointer-events="none" font-size="8px" fill="#000000" x="58.99988629874656" y="3" transform="rotate(180 58.99988629874656 0)" font-family="sans-serif">IS_COUNTRY…</text></g><g class="relationship" transform="translate(-492.2420393638896 -104.47559769069464) rotate(348.49381593757084)"><path class="outline" fill="#A5ABB6" stroke="none" d="M 25 0.5 L 27.175026754134265 0.5 L 27.175026754134265 -0.5 L 25 -0.5 Z M 89.19065175413427 0.5 L 91.36567850826853 0.5 L 91.36567850826853 3.5 L 98.36567850826853 0 L 91.36567850826853 -3.5 L 91.36567850826853 -0.5 L 89.19065175413427 -0.5 Z"/><text text-anchor="middle" pointer-events="none" font-size="8px" fill="#000000" x="58.182839254134265" y="3" font-family="sans-serif">IS_CLIENT_OF</text></g><g class="relationship" transform="translate(-240.52376605366743 -134.3644360047247) rotate(537.6886845513228)"><path class="outline" fill="#A5ABB6" stroke="none" d="M 25 0.5 L 25.478954364667672 0.5 L 25.478954364667672 -0.5 L 25 -0.5 Z M 98.45942311466767 0.5 L 98.93837747933534 0.5 L 98.93837747933534 3.5 L 105.93837747933534 0 L 98.93837747933534 -3.5 L 98.93837747933534 -0.5 L 98.45942311466767 -0.5 Z"/><text text-anchor="middle" pointer-events="none" font-size="8px" fill="#000000" x="61.96918873966767" y="3" transform="rotate(180 61.96918873966767 0)" font-family="sans-serif">IS_COUNTRY_OF</text></g><g class="relationship" transform="translate(245.51117839384233 -71.98363296407757) rotate(382.85873239644525)"><path class="outline" fill="#A5ABB6" stroke="none" d="M 25 0.5 L 27.674213803396853 0.5 L 27.674213803396853 -0.5 L 25 -0.5 Z M 89.68983880339685 0.5 L 92.3640526067937 0.5 L 92.3640526067937 3.5 L 99.3640526067937 0 L 92.3640526067937 -3.5 L 92.3640526067937 -0.5 L 89.68983880339685 -0.5 Z"/><text text-anchor="middle" pointer-events="none" font-size="8px" fill="#000000" x="58.68202630339685" y="3" font-family="sans-serif">IS_CLIENT_OF</text></g><g class="relationship" transform="translate(481.52061990234114 13.774500563953335) rotate(197.1415233379406)"><path class="outline" fill="#A5ABB6" stroke="none" d="M 25 0.5 L 25.09252399350465 0.5 L 25.09252399350465 -0.5 L 25 -0.5 Z M 94.96361774350464 0.5 L 95.0561417370093 0.5 L 95.0561417370093 3.5 L 102.0561417370093 0 L 95.0561417370093 -3.5 L 95.0561417370093 -0.5 L 94.96361774350464 -0.5 Z"/><text text-anchor="middle" pointer-events="none" font-size="8px" fill="#000000" x="60.02807086850465" y="3" transform="rotate(180 60.02807086850465 0)" font-family="sans-serif">IS_COUNTRY_…</text></g><g class="relationship" transform="translate(301.90403180153726 446.18460476258196) rotate(514.2073833269437)"><path class="outline" fill="#A5ABB6" stroke="none" d="M 25 0.5 L 26.347915890182087 0.5 L 26.347915890182087 -0.5 L 25 -0.5 Z M 86.5744783901821 0.5 L 87.92239428036417 0.5 L 87.92239428036417 3.5 L 94.92239428036417 0 L 87.92239428036417 -3.5 L 87.92239428036417 -0.5 L 86.5744783901821 -0.5 Z"/><text text-anchor="middle" pointer-events="none" font-size="8px" fill="#000000" x="56.46119714018209" y="3" transform="rotate(180 56.46119714018209 0)" font-family="sans-serif">IS_COUNTR…</text></g><g class="relationship" transform="translate(80.83385372790659 544.7944116842939) rotate(337.6800122805323)"><path class="outline" fill="#A5ABB6" stroke="none" d="M 25 0.5 L 26.61955049854332 0.5 L 26.61955049854332 -0.5 L 25 -0.5 Z M 88.63517549854332 0.5 L 90.25472599708664 0.5 L 90.25472599708664 3.5 L 97.25472599708664 0 L 90.25472599708664 -3.5 L 90.25472599708664 -0.5 L 88.63517549854332 -0.5 Z"/><text text-anchor="middle" pointer-events="none" font-size="8px" fill="#000000" x="57.62736299854332" y="3" font-family="sans-serif">IS_CLIENT_OF</text></g><g class="relationship" transform="translate(-240.52376605366743 -134.3644360047247) rotate(488.82771609297515)"><path class="outline" fill="#A5ABB6" stroke="none" d="M 25 0.5 L 26.272141092485583 0.5 L 26.272141092485583 -0.5 L 25 -0.5 Z M 96.14323484248558 0.5 L 97.41537593497117 0.5 L 97.41537593497117 3.5 L 104.41537593497117 0 L 97.41537593497117 -3.5 L 97.41537593497117 -0.5 L 96.14323484248558 -0.5 Z"/><text text-anchor="middle" pointer-events="none" font-size="8px" fill="#000000" x="61.20768796748558" y="3" transform="rotate(180 61.20768796748558 0)" font-family="sans-serif">IS_COUNTRY_…</text></g><g class="relationship" transform="translate(-291.1502804191499 101.02386163422652) rotate(257.2238671256123)"><path class="outline" fill="#A5ABB6" stroke="none" d="M 25 0.5 L 34.484951354721915 0.5 L 34.484951354721915 -0.5 L 25 -0.5 Z M 96.50057635472191 0.5 L 105.98552770944383 0.5 L 105.98552770944383 3.5 L 112.98552770944383 0 L 105.98552770944383 -3.5 L 105.98552770944383 -0.5 L 96.50057635472191 -0.5 Z"/><text text-anchor="middle" pointer-events="none" font-size="8px" fill="#000000" x="65.49276385472191" y="3" transform="rotate(180 65.49276385472191 0)" font-family="sans-serif">IS_CLIENT_OF</text></g><g class="relationship" transform="translate(-495.3166017819784 399.06662215015206) rotate(280.38885826275276)"><path class="outline" fill="#A5ABB6" stroke="none" d="M 25 0.5 L 27.755259692352716 0.5 L 27.755259692352716 -0.5 L 25 -0.5 Z M 71.54041594235272 0.5 L 74.29567563470543 0.5 L 74.29567563470543 3.5 L 81.29567563470543 0 L 74.29567563470543 -3.5 L 74.29567563470543 -0.5 L 71.54041594235272 -0.5 Z"/><text text-anchor="middle" pointer-events="none" font-size="8px" fill="#000000" x="49.647837817352716" y="3" font-family="sans-serif">IS_COU…</text></g><g class="relationship" transform="translate(-380.35736559658125 347.12456698524727) rotate(208.77676775050872)"><path class="outline" fill="#A5ABB6" stroke="none" d="M 25 0.5 L 26.35885384619646 0.5 L 26.35885384619646 -0.5 L 25 -0.5 Z M 75.92916634619647 0.5 L 77.28802019239292 0.5 L 77.28802019239292 3.5 L 84.28802019239292 0 L 77.28802019239292 -3.5 L 77.28802019239292 -0.5 L 75.92916634619647 -0.5 Z"/><text text-anchor="middle" pointer-events="none" font-size="8px" fill="#000000" x="51.14401009619646" y="3" transform="rotate(180 51.14401009619646 0)" font-family="sans-serif">IS_CLIEN…</text></g><g class="relationship" transform="translate(-263.98194278991986 552.638549527039) rotate(325.18538185311144)"><path class="outline" fill="#A5ABB6" stroke="none" d="M 25 0.5 L 27.87102204588944 0.5 L 27.87102204588944 -0.5 L 25 -0.5 Z M 71.65617829588945 0.5 L 74.52720034177888 0.5 L 74.52720034177888 3.5 L 81.52720034177888 0 L 74.52720034177888 -3.5 L 74.52720034177888 -0.5 L 71.65617829588945 -0.5 Z"/><text text-anchor="middle" pointer-events="none" font-size="8px" fill="#000000" x="49.76360017088944" y="3" font-family="sans-serif">IS_COU…</text></g><g class="relationship" transform="translate(-176.2296384405642 386.95663133175526) rotate(450.16014121703245)"><path class="outline" fill="#A5ABB6" stroke="none" d="M 25 0.5 L 27.035262305438017 0.5 L 27.035262305438017 -0.5 L 25 -0.5 Z M 70.82823105543801 0.5 L 72.86349336087603 0.5 L 72.86349336087603 3.5 L 79.86349336087603 0 L 72.86349336087603 -3.5 L 72.86349336087603 -0.5 L 70.82823105543801 -0.5 Z"/><text text-anchor="middle" pointer-events="none" font-size="8px" fill="#000000" x="48.93174668043802" y="3" transform="rotate(180 48.93174668043802 0)" font-family="sans-serif">IS_CLIE…</text></g><g class="relationship" transform="translate(258.4326930561533 113.64348547764817) rotate(344.2816074266534)"><path class="outline" fill="#A5ABB6" stroke="none" d="M 25 0.5 L 26.25002778087348 0.5 L 26.25002778087348 -0.5 L 25 -0.5 Z M 88.26565278087348 0.5 L 89.51568056174696 0.5 L 89.51568056174696 3.5 L 96.51568056174696 0 L 89.51568056174696 -3.5 L 89.51568056174696 -0.5 L 88.26565278087348 -0.5 Z"/><text text-anchor="middle" pointer-events="none" font-size="8px" fill="#000000" x="57.25784028087348" y="3" font-family="sans-serif">IS_CLIENT_OF</text></g><g class="relationship" transform="translate(481.52061990234114 13.774500563953335) rotate(507.7520048206564)"><path class="outline" fill="#A5ABB6" stroke="none" d="M 25 0.5 L 26.524377746098246 0.5 L 26.524377746098246 -0.5 L 25 -0.5 Z M 91.94625274609825 0.5 L 93.47063049219649 0.5 L 93.47063049219649 3.5 L 100.47063049219649 0 L 93.47063049219649 -3.5 L 93.47063049219649 -0.5 L 91.94625274609825 -0.5 Z"/><text text-anchor="middle" pointer-events="none" font-size="8px" fill="#000000" x="59.235315246098246" y="3" transform="rotate(180 59.235315246098246 0)" font-family="sans-serif">IS_COUNTRY…</text></g><g class="relationship" transform="translate(-82.5817005705718 754.0697713822487) rotate(357.63349613404694)"><path class="outline" fill="#A5ABB6" stroke="none" d="M 25 0.5 L 27.127503891241624 0.5 L 27.127503891241624 -0.5 L 25 -0.5 Z M 76.69781639124162 0.5 L 78.82532028248325 0.5 L 78.82532028248325 3.5 L 85.82532028248325 0 L 78.82532028248325 -3.5 L 78.82532028248325 -0.5 L 76.69781639124162 -0.5 Z"/><text text-anchor="middle" pointer-events="none" font-size="8px" fill="#000000" x="51.91266014124162" y="3" font-family="sans-serif">IS_CLIEN…</text></g><g class="relationship" transform="translate(-33.40239927762097 658.3536365645265) rotate(415.96682788254145)"><path class="outline" fill="#A5ABB6" stroke="none" d="M 25 0.5 L 26.70757695944601 0.5 L 26.70757695944601 -0.5 L 25 -0.5 Z M 76.27007695944602 0.5 L 77.97765391889202 0.5 L 77.97765391889202 3.5 L 84.97765391889202 0 L 77.97765391889202 -3.5 L 77.97765391889202 -0.5 L 76.27007695944602 -0.5 Z"/><text text-anchor="middle" pointer-events="none" font-size="8px" fill="#000000" x="51.48882695944601" y="3" font-family="sans-serif">IS_COUN…</text></g></g><g class="layer nodes"><g class="node" transform="translate(-262.9535151391197,-4.777827113078213)"><circle class="outline" cx="0" cy="0" r="25" fill="#FB95AF" stroke="#E0849B" stroke-width="2px"/><text text-anchor="middle" pointer-events="none" y="5" font-size="10px" fill="#FFFFFF" font-family="sans-serif"> 5338926…</text></g><g class="node" transform="translate(-365.96287685443264,89.05886717005933)"><circle class="outline" cx="0" cy="0" r="25" fill="#6DCE9E" stroke="#60B58B" stroke-width="2px"/><text text-anchor="middle" pointer-events="none" y="0" font-size="10px" fill="#FFFFFF" font-family="sans-serif"> AGBU</text><text text-anchor="middle" pointer-events="none" y="10" font-size="10px" fill="#FFFFFF" font-family="sans-serif"> Europe</text></g><g class="node" transform="translate(-240.52376605366743,-134.3644360047247)"><circle class="outline" cx="0" cy="0" r="25" fill="#FFD86E" stroke="#EDBA39" stroke-width="2px"/><text text-anchor="middle" pointer-events="none" y="5" font-size="10px" fill="#604A0E" font-family="sans-serif"> Belgium</text></g><g class="node" transform="translate(187.7943704050704,565.7157897630783)"><circle class="outline" cx="0" cy="0" r="25" fill="#6DCE9E" stroke="#60B58B" stroke-width="2px"/><text text-anchor="middle" pointer-events="none" y="5" font-size="10px" fill="#FFFFFF" font-family="sans-serif"> LanzaTe…</text></g><g class="node" transform="translate(184.43636996592642,433.7796223718067)"><circle class="outline" cx="0" cy="0" r="25" fill="#FB95AF" stroke="#E0849B" stroke-width="2px"/><text text-anchor="middle" pointer-events="none" y="5" font-size="10px" fill="#FFFFFF" font-family="sans-serif"> 3690472…</text></g><g class="node" transform="translate(301.90403180153726,446.18460476258196)"><circle class="outline" cx="0" cy="0" r="25" fill="#FFD86E" stroke="#EDBA39" stroke-width="2px"/><text text-anchor="middle" pointer-events="none" y="5" font-size="10px" fill="#604A0E" font-family="sans-serif"> Italy</text></g><g class="node" transform="translate(357.7725626932167,555.0307180562)"><circle class="outline" cx="0" cy="0" r="25" fill="#FB95AF" stroke="#E0849B" stroke-width="2px"/><text text-anchor="middle" pointer-events="none" y="5" font-size="10px" fill="#FFFFFF" font-family="sans-serif"> 8329754…</text></g><g class="node" transform="translate(424.79878117535327,647.0546521644964)"><circle class="outline" cx="0" cy="0" r="25" fill="#6DCE9E" stroke="#60B58B" stroke-width="2px"/><text text-anchor="middle" pointer-events="none" y="0" font-size="10px" fill="#FFFFFF" font-family="sans-serif"> Curia</text><text text-anchor="middle" pointer-events="none" y="10" font-size="10px" fill="#FFFFFF" font-family="sans-serif"> General…</text></g><g class="node" transform="translate(-117.90152500042595,-100.22196742938792)"><circle class="outline" cx="0" cy="0" r="25" fill="#FB95AF" stroke="#E0849B" stroke-width="2px"/><text text-anchor="middle" pointer-events="none" y="5" font-size="10px" fill="#FFFFFF" font-family="sans-serif"> 7832342…</text></g><g class="node" transform="translate(-70.71337364120157,30.289363144024797)"><circle class="outline" cx="0" cy="0" r="25" fill="#6DCE9E" stroke="#60B58B" stroke-width="2px"/><text text-anchor="middle" pointer-events="none" y="5" font-size="10px" fill="#FFFFFF" font-family="sans-serif"> KPMG</text></g><g class="node" transform="translate(481.52061990234114,13.774500563953335)"><circle class="outline" cx="0" cy="0" r="25" fill="#FFD86E" stroke="#EDBA39" stroke-width="2px"/><text text-anchor="middle" pointer-events="none" y="5" font-size="10px" fill="#604A0E" font-family="sans-serif"> France</text></g><g class="node" transform="translate(480.85781447983805,137.55686371322972)"><circle class="outline" cx="0" cy="0" r="25" fill="#FB95AF" stroke="#E0849B" stroke-width="2px"/><text text-anchor="middle" pointer-events="none" y="5" font-size="10px" fill="#FFFFFF" font-family="sans-serif"> 8247510…</text></g><g class="node" transform="translate(514.0297167154794,253.00189001738119)"><circle class="outline" cx="0" cy="0" r="25" fill="#6DCE9E" stroke="#60B58B" stroke-width="2px"/><text text-anchor="middle" pointer-events="none" y="0" font-size="10px" fill="#FFFFFF" font-family="sans-serif"> Regis</text><text text-anchor="middle" pointer-events="none" y="10" font-size="10px" fill="#FFFFFF" font-family="sans-serif"> PETIT</text></g><g class="node" transform="translate(581.0934631253815,97.01999401235614)"><circle class="outline" cx="0" cy="0" r="25" fill="#FB95AF" stroke="#E0849B" stroke-width="2px"/><text text-anchor="middle" pointer-events="none" y="5" font-size="10px" fill="#FFFFFF" font-family="sans-serif"> 2966177…</text></g><g class="node" transform="translate(671.0271720242436,184.31773941735324)"><circle class="outline" cx="0" cy="0" r="25" fill="#6DCE9E" stroke="#60B58B" stroke-width="2px"/><text text-anchor="middle" pointer-events="none" y="5" font-size="10px" fill="#FFFFFF" font-family="sans-serif"> Meridia…</text></g><g class="node" transform="translate(534.8897830245451,463.39558906496507)"><circle class="outline" cx="0" cy="0" r="25" fill="#6DCE9E" stroke="#60B58B" stroke-width="2px"/><text text-anchor="middle" pointer-events="none" y="5" font-size="10px" fill="#FFFFFF" font-family="sans-serif"> European</text></g><g class="node" transform="translate(419.7642760309257,440.27175982106223)"><circle class="outline" cx="0" cy="0" r="25" fill="#FB95AF" stroke="#E0849B" stroke-width="2px"/><text text-anchor="middle" pointer-events="none" y="5" font-size="10px" fill="#FFFFFF" font-family="sans-serif"> 0063867…</text></g><g class="node" transform="translate(585.7713259075215,-379.9064608717754)"><circle class="outline" cx="0" cy="0" r="25" fill="#6DCE9E" stroke="#60B58B" stroke-width="2px"/><text text-anchor="middle" pointer-events="none" y="5" font-size="10px" fill="#FFFFFF" font-family="sans-serif"> Europa…</text></g><g class="node" transform="translate(488.0115605749999,-423.809691712101)"><circle class="outline" cx="0" cy="0" r="25" fill="#FB95AF" stroke="#E0849B" stroke-width="2px"/><text text-anchor="middle" pointer-events="none" y="5" font-size="10px" fill="#FFFFFF" font-family="sans-serif"> 4686432…</text></g><g class="node" transform="translate(387.8521937638301,-456.84498497917457)"><circle class="outline" cx="0" cy="0" r="25" fill="#FFD86E" stroke="#EDBA39" stroke-width="2px"/><text text-anchor="middle" pointer-events="none" y="5" font-size="10px" fill="#604A0E" font-family="sans-serif"> Austria</text></g><g class="node" transform="translate(605.2030997058334,-9.062363677376863)"><circle class="outline" cx="0" cy="0" r="25" fill="#FB95AF" stroke="#E0849B" stroke-width="2px"/><text text-anchor="middle" pointer-events="none" y="5" font-size="10px" fill="#FFFFFF" font-family="sans-serif"> 2256115…</text></g><g class="node" transform="translate(723.8065859741369,-10.672334616732645)"><circle class="outline" cx="0" cy="0" r="25" fill="#6DCE9E" stroke="#60B58B" stroke-width="2px"/><text text-anchor="middle" pointer-events="none" y="-5" font-size="10px" fill="#FFFFFF" font-family="sans-serif"> alliance</text><text text-anchor="middle" pointer-events="none" y="5" font-size="10px" fill="#FFFFFF" font-family="sans-serif"> for the</text><text text-anchor="middle" pointer-events="none" y="15" font-size="10px" fill="#FFFFFF" font-family="sans-serif"> societas</text></g><g class="node" transform="translate(-20.613214239548185,-25.08349261618469)"><circle class="outline" cx="0" cy="0" r="25" fill="#6DCE9E" stroke="#60B58B" stroke-width="2px"/><text text-anchor="middle" pointer-events="none" y="5" font-size="10px" fill="#FFFFFF" font-family="sans-serif"> Interactive</text></g><g class="node" transform="translate(-154.34710112160707,-39.88850375500287)"><circle class="outline" cx="0" cy="0" r="25" fill="#FB95AF" stroke="#E0849B" stroke-width="2px"/><text text-anchor="middle" pointer-events="none" y="5" font-size="10px" fill="#FFFFFF" font-family="sans-serif"> 8180896…</text></g><g class="node" transform="translate(-132.69009207446842,-210.0492825560154)"><circle class="outline" cx="0" cy="0" r="25" fill="#FB95AF" stroke="#E0849B" stroke-width="2px"/><text text-anchor="middle" pointer-events="none" y="5" font-size="10px" fill="#FFFFFF" font-family="sans-serif"> 5341605…</text></g><g class="node" transform="translate(-22.886968185109204,-270.45105537002314)"><circle class="outline" cx="0" cy="0" r="25" fill="#6DCE9E" stroke="#60B58B" stroke-width="2px"/><text text-anchor="middle" pointer-events="none" y="5" font-size="10px" fill="#FFFFFF" font-family="sans-serif"> VinylPlus</text></g><g class="node" transform="translate(559.4187858005872,-210.42287682845026)"><circle class="outline" cx="0" cy="0" r="25" fill="#6DCE9E" stroke="#60B58B" stroke-width="2px"/><text text-anchor="middle" pointer-events="none" y="0" font-size="10px" fill="#FFFFFF" font-family="sans-serif"> LMI</text><text text-anchor="middle" pointer-events="none" y="10" font-size="10px" fill="#FFFFFF" font-family="sans-serif"> Innovati…</text></g><g class="node" transform="translate(535.7150266421984,-96.87380386102842)"><circle class="outline" cx="0" cy="0" r="25" fill="#FB95AF" stroke="#E0849B" stroke-width="2px"/><text text-anchor="middle" pointer-events="none" y="5" font-size="10px" fill="#FFFFFF" font-family="sans-serif"> 3076702…</text></g><g class="node" transform="translate(422.9689725249999,-101.12186640793412)"><circle class="outline" cx="0" cy="0" r="25" fill="#FB95AF" stroke="#E0849B" stroke-width="2px"/><text text-anchor="middle" pointer-events="none" y="5" font-size="10px" fill="#FFFFFF" font-family="sans-serif"> 8493142…</text></g><g class="node" transform="translate(349.83868982264386,-202.8544821141766)"><circle class="outline" cx="0" cy="0" r="25" fill="#6DCE9E" stroke="#60B58B" stroke-width="2px"/><text text-anchor="middle" pointer-events="none" y="5" font-size="10px" fill="#FFFFFF" font-family="sans-serif"> Associat…</text></g><g class="node" transform="translate(-219.0747601937744,-261.7806551570858)"><circle class="outline" cx="0" cy="0" r="25" fill="#FB95AF" stroke="#E0849B" stroke-width="2px"/><text text-anchor="middle" pointer-events="none" y="5" font-size="10px" fill="#FFFFFF" font-family="sans-serif"> 8297725…</text></g><g class="node" transform="translate(-186.3494775650638,-381.7413508056909)"><circle class="outline" cx="0" cy="0" r="25" fill="#6DCE9E" stroke="#60B58B" stroke-width="2px"/><text text-anchor="middle" pointer-events="none" y="0" font-size="10px" fill="#FFFFFF" font-family="sans-serif"> Pack2Go</text><text text-anchor="middle" pointer-events="none" y="10" font-size="10px" fill="#FFFFFF" font-family="sans-serif"> Europe#</text></g><g class="node" transform="translate(238.3961994720219,339.9132535678278)"><circle class="outline" cx="0" cy="0" r="25" fill="#FB95AF" stroke="#E0849B" stroke-width="2px"/><text text-anchor="middle" pointer-events="none" y="5" font-size="10px" fill="#FFFFFF" font-family="sans-serif"> 5209705…</text></g><g class="node" transform="translate(128.67509383624147,285.8678743393462)"><circle class="outline" cx="0" cy="0" r="25" fill="#6DCE9E" stroke="#60B58B" stroke-width="2px"/><text text-anchor="middle" pointer-events="none" y="-10" font-size="10px" fill="#FFFFFF" font-family="sans-serif"> ...#</text><text text-anchor="middle" pointer-events="none" y="0" font-size="10px" fill="#FFFFFF" font-family="sans-serif"> Centre</text><text text-anchor="middle" pointer-events="none" y="10" font-size="10px" fill="#FFFFFF" font-family="sans-serif"> for</text><text text-anchor="middle" pointer-events="none" y="20" font-size="10px" fill="#FFFFFF" font-family="sans-serif"> Agri…</text></g><g class="node" transform="translate(198.46758486191058,-475.24598940725605)"><circle class="outline" cx="0" cy="0" r="25" fill="#FFD86E" stroke="#EDBA39" stroke-width="2px"/><text text-anchor="middle" pointer-events="none" y="5" font-size="10px" fill="#604A0E" font-family="sans-serif"> Luxemb…</text></g><g class="node" transform="translate(100.1224044337306,-504.4966529579555)"><circle class="outline" cx="0" cy="0" r="25" fill="#FB95AF" stroke="#E0849B" stroke-width="2px"/><text text-anchor="middle" pointer-events="none" y="5" font-size="10px" fill="#FFFFFF" font-family="sans-serif"> 6750008…</text></g><g class="node" transform="translate(-0.705994801184682,-530.0052245433708)"><circle class="outline" cx="0" cy="0" r="25" fill="#6DCE9E" stroke="#60B58B" stroke-width="2px"/><text text-anchor="middle" pointer-events="none" y="0" font-size="10px" fill="#FFFFFF" font-family="sans-serif"> EU</text><text text-anchor="middle" pointer-events="none" y="10" font-size="10px" fill="#FFFFFF" font-family="sans-serif"> Instituti…</text></g><g class="node" transform="translate(-321.0885701924996,-229.9377350138967)"><circle class="outline" cx="0" cy="0" r="25" fill="#FB95AF" stroke="#E0849B" stroke-width="2px"/><text text-anchor="middle" pointer-events="none" y="5" font-size="10px" fill="#FFFFFF" font-family="sans-serif"> 1539272…</text></g><g class="node" transform="translate(-385.411658445404,-330.70345015515625)"><circle class="outline" cx="0" cy="0" r="25" fill="#6DCE9E" stroke="#60B58B" stroke-width="2px"/><text text-anchor="middle" pointer-events="none" y="5" font-size="10px" fill="#FFFFFF" font-family="sans-serif"> European</text></g><g class="node" transform="translate(-371.3556186064873,-129.08380587962557)"><circle class="outline" cx="0" cy="0" r="25" fill="#FB95AF" stroke="#E0849B" stroke-width="2px"/><text text-anchor="middle" pointer-events="none" y="5" font-size="10px" fill="#FFFFFF" font-family="sans-serif"> 5113525…</text></g><g class="node" transform="translate(-492.2420393638896,-104.47559769069464)"><circle class="outline" cx="0" cy="0" r="25" fill="#6DCE9E" stroke="#60B58B" stroke-width="2px"/><text text-anchor="middle" pointer-events="none" y="0" font-size="10px" fill="#FFFFFF" font-family="sans-serif"> Polish</text><text text-anchor="middle" pointer-events="none" y="10" font-size="10px" fill="#FFFFFF" font-family="sans-serif"> Airlines</text></g><g class="node" transform="translate(360.1083542633344,-23.67312827284026)"><circle class="outline" cx="0" cy="0" r="25" fill="#FB95AF" stroke="#E0849B" stroke-width="2px"/><text text-anchor="middle" pointer-events="none" y="5" font-size="10px" fill="#FFFFFF" font-family="sans-serif"> 8969812…</text></g><g class="node" transform="translate(245.51117839384233,-71.98363296407757)"><circle class="outline" cx="0" cy="0" r="25" fill="#6DCE9E" stroke="#60B58B" stroke-width="2px"/><text text-anchor="middle" pointer-events="none" y="-5" font-size="10px" fill="#FFFFFF" font-family="sans-serif"> Kokoba</text><text text-anchor="middle" pointer-events="none" y="5" font-size="10px" fill="#FFFFFF" font-family="sans-serif"> Limited#</text><text text-anchor="middle" pointer-events="none" y="15" font-size="10px" fill="#FFFFFF" font-family="sans-serif"> Interpr…</text></g><g class="node" transform="translate(193.92892412716336,498.36464666216733)"><circle class="outline" cx="0" cy="0" r="25" fill="#FB95AF" stroke="#E0849B" stroke-width="2px"/><text text-anchor="middle" pointer-events="none" y="5" font-size="10px" fill="#FFFFFF" font-family="sans-serif"> 2345608…</text></g><g class="node" transform="translate(80.83385372790659,544.7944116842939)"><circle class="outline" cx="0" cy="0" r="25" fill="#6DCE9E" stroke="#60B58B" stroke-width="2px"/><text text-anchor="middle" pointer-events="none" y="-5" font-size="10px" fill="#FFFFFF" font-family="sans-serif"> CRIF#</text><text text-anchor="middle" pointer-events="none" y="5" font-size="10px" fill="#FFFFFF" font-family="sans-serif"> CRIF</text><text text-anchor="middle" pointer-events="none" y="15" font-size="10px" fill="#FFFFFF" font-family="sans-serif"> RATING</text></g><g class="node" transform="translate(-321.6647132808905,-33.545359380015846)"><circle class="outline" cx="0" cy="0" r="25" fill="#FB95AF" stroke="#E0849B" stroke-width="2px"/><text text-anchor="middle" pointer-events="none" y="5" font-size="10px" fill="#FFFFFF" font-family="sans-serif"> 5789302…</text></g><g class="node" transform="translate(-291.1502804191499,101.02386163422652)"><circle class="outline" cx="0" cy="0" r="25" fill="#6DCE9E" stroke="#60B58B" stroke-width="2px"/><text text-anchor="middle" pointer-events="none" y="-5" font-size="10px" fill="#FFFFFF" font-family="sans-serif"> Alliance</text><text text-anchor="middle" pointer-events="none" y="5" font-size="10px" fill="#FFFFFF" font-family="sans-serif"> for a</text><text text-anchor="middle" pointer-events="none" y="15" font-size="10px" fill="#FFFFFF" font-family="sans-serif"> Comp…</text></g><g class="node" transform="translate(-476.1485283103391,294.51349872466875)"><circle class="outline" cx="0" cy="0" r="25" fill="#FB95AF" stroke="#E0849B" stroke-width="2px"/><text text-anchor="middle" pointer-events="none" y="5" font-size="10px" fill="#FFFFFF" font-family="sans-serif"> 4199212…</text></g><g class="node" transform="translate(-495.3166017819784,399.06662215015206)"><circle class="outline" cx="0" cy="0" r="25" fill="#FFD86E" stroke="#EDBA39" stroke-width="2px"/><text text-anchor="middle" pointer-events="none" y="5" font-size="10px" fill="#604A0E" font-family="sans-serif"> Germany</text></g><g class="node" transform="translate(-380.35736559658125,347.12456698524727)"><circle class="outline" cx="0" cy="0" r="25" fill="#6DCE9E" stroke="#60B58B" stroke-width="2px"/><text text-anchor="middle" pointer-events="none" y="-5" font-size="10px" fill="#FFFFFF" font-family="sans-serif"> Prepaid</text><text text-anchor="middle" pointer-events="none" y="5" font-size="10px" fill="#FFFFFF" font-family="sans-serif"> Verband</text><text text-anchor="middle" pointer-events="none" y="15" font-size="10px" fill="#FFFFFF" font-family="sans-serif"> Deuts…</text></g><g class="node" transform="translate(-176.2296384405642,386.95663133175526)"><circle class="outline" cx="0" cy="0" r="25" fill="#6DCE9E" stroke="#60B58B" stroke-width="2px"/><text text-anchor="middle" pointer-events="none" y="5" font-size="10px" fill="#FFFFFF" font-family="sans-serif"> Federati…</text></g><g class="node" transform="translate(-263.98194278991986,552.638549527039)"><circle class="outline" cx="0" cy="0" r="25" fill="#FFD86E" stroke="#EDBA39" stroke-width="2px"/><text text-anchor="middle" pointer-events="none" y="0" font-size="10px" fill="#604A0E" font-family="sans-serif"> United</text><text text-anchor="middle" pointer-events="none" y="10" font-size="10px" fill="#604A0E" font-family="sans-serif"> Kingdom</text></g><g class="node" transform="translate(-176.52273063212564,491.8197150972718)"><circle class="outline" cx="0" cy="0" r="25" fill="#FB95AF" stroke="#E0849B" stroke-width="2px"/><text text-anchor="middle" pointer-events="none" y="5" font-size="10px" fill="#FFFFFF" font-family="sans-serif"> 5899961…</text></g><g class="node" transform="translate(258.4326930561533,113.64348547764817)"><circle class="outline" cx="0" cy="0" r="25" fill="#6DCE9E" stroke="#60B58B" stroke-width="2px"/><text text-anchor="middle" pointer-events="none" y="5" font-size="10px" fill="#FFFFFF" font-family="sans-serif"> Associat…</text></g><g class="node" transform="translate(375.4042742213031,80.72373726917465)"><circle class="outline" cx="0" cy="0" r="25" fill="#FB95AF" stroke="#E0849B" stroke-width="2px"/><text text-anchor="middle" pointer-events="none" y="5" font-size="10px" fill="#FFFFFF" font-family="sans-serif"> 8206470…</text></g><g class="node" transform="translate(-82.5817005705718,754.0697713822487)"><circle class="outline" cx="0" cy="0" r="25" fill="#6DCE9E" stroke="#60B58B" stroke-width="2px"/><text text-anchor="middle" pointer-events="none" y="5" font-size="10px" fill="#FFFFFF" font-family="sans-serif"> Vojvodin…</text></g><g class="node" transform="translate(-33.40239927762097,658.3536365645265)"><circle class="outline" cx="0" cy="0" r="25" fill="#FFD86E" stroke="#EDBA39" stroke-width="2px"/><text text-anchor="middle" pointer-events="none" y="5" font-size="10px" fill="#604A0E" font-family="sans-serif"> Serbia</text></g><g class="node" transform="translate(28.149101297080836,749.4936230606088)"><circle class="outline" cx="0" cy="0" r="25" fill="#FB95AF" stroke="#E0849B" stroke-width="2px"/><text text-anchor="middle" pointer-events="none" y="5" font-size="10px" fill="#FFFFFF" font-family="sans-serif"> 6930289…</text></g></g></svg>